ply
format ascii 1.0
element vertex 2136
property float x
property float y
property float z
end_header
0.00050 -0.00053 0.00256
0.00042 -0.00214 0.19375
0.00522 0.00379 0.38180
-0.00506 -0.00249 0.57709
-0.00930 -0.00088 0.76425
-0.00293 -0.00218 0.96027
0.00165 0.00417 1.15333
0.00547 -0.00266 1.34756
0.00361 0.00038 1.53549
-0.00369 -0.00183 1.73165
-0.00404 -0.00084 1.92244
0.00216 0.00086 2.11681
-0.00262 -0.00052 2.31083
0.00597 -0.00504 2.50606
0.10538 0.00313 0.00106
0.09874 0.00583 0.20015
0.10721 0.00526 0.38604
0.09517 -0.00002 0.57955
0.09485 0.00158 0.77095
0.10278 -0.00474 0.95889
0.09825 -0.00468 1.16080
0.09802 0.00132 1.34512
0.10633 0.00528 1.54099
0.09119 0.00021 1.73350
0.10402 -0.00247 1.93036
0.09472 -0.00265 2.11912
0.10020 0.00801 2.30845
0.09747 -0.00151 2.49564
0.19489 0.00252 0.00232
0.20518 -0.00302 0.19906
0.19885 0.00630 0.38288
0.19706 0.00100 0.58105
0.20064 -0.00234 0.76387
0.19439 0.00201 0.96550
0.19934 -0.00430 1.15734
0.19488 -0.00285 1.34864
0.19100 0.00155 1.53613
0.20044 -0.00030 1.73158
0.20278 -0.00303 1.92876
0.20290 0.00337 2.12004
0.20315 0.00338 2.30799
0.19429 -0.00054 2.49692
0.29431 0.00103 -0.00227
0.29588 -0.00417 0.19338
0.30143 0.00529 0.38456
0.30417 0.00561 0.58152
0.29054 0.00491 0.77059
0.30170 0.00148 0.96307
0.30128 -0.00144 1.14624
0.29956 -0.00321 1.35047
0.29884 0.00033 1.53506
0.29796 -0.00005 1.72483
0.30120 -0.00042 1.91833
0.29041 0.00205 2.11419
0.29788 -0.00094 2.31496
0.29980 0.00035 2.49405
0.40659 0.00367 0.00427
0.40019 0.00367 0.19379
0.40245 -0.00061 0.37872
0.40412 -0.00774 0.57596
0.39918 -0.00417 0.77168
0.39920 -0.00175 0.96362
0.39809 0.00556 1.15525
0.39810 -0.00778 1.34092
0.40435 -0.00020 1.53733
0.40657 -0.00513 1.72843
0.39811 0.00235 1.92042
0.39755 -0.00642 2.11830
0.40322 -0.00191 2.30835
0.39483 -0.00189 2.50551
0.50054 0.00924 -0.00315
0.50232 -0.00078 0.19457
0.49997 -0.00224 0.38114
0.51226 -0.00031 0.56886
0.49741 0.00271 0.76723
0.50544 0.00401 0.96093
0.49811 -0.00402 1.15105
0.49411 0.00482 1.35252
0.49498 -0.00473 1.53139
0.49614 -0.01243 1.72620
0.50519 -0.00138 1.92650
0.49804 0.00704 2.11618
0.49847 0.01021 2.30639
0.49512 0.00081 2.49984
0.60427 -0.00369 0.00322
0.60341 -0.00267 0.19296
0.59668 0.00938 0.38180
0.59819 -0.00426 0.57554
0.59998 0.00307 0.76679
0.59926 -0.00567 0.95823
0.61102 0.00416 1.15072
0.59465 -0.00390 1.34607
0.60014 -0.00298 1.53332
0.60569 0.00181 1.72927
0.59912 -0.00212 1.91133
0.60046 -0.00428 2.11137
0.59744 0.00293 2.30301
0.59426 0.00256 2.50302
0.69616 0.00225 -0.00117
0.70121 -0.00504 0.19564
0.70481 0.00255 0.38685
0.68491 0.00104 0.57682
0.69941 -0.00252 0.76945
0.70165 -0.00106 0.95969
0.70492 -0.00442 1.15797
0.70071 -0.00322 1.34499
0.69632 0.00270 1.53985
0.69777 -0.00441 1.73198
0.70383 -0.00046 1.92475
0.69850 0.00027 2.11422
0.70118 -0.00604 2.31027
0.69908 0.00143 2.49864
0.80128 -0.00429 0.00476
0.79319 -0.00416 0.19325
0.80585 0.00111 0.38362
0.79430 -0.00077 0.57684
0.80676 0.00249 0.76311
0.80811 -0.00158 0.95802
0.80590 -0.00020 1.15238
0.80088 0.00338 1.35013
0.79450 0.00799 1.54225
0.79848 -0.00327 1.72689
0.80049 -0.00259 1.92002
0.80325 0.00146 2.11381
0.80294 0.00547 2.30331
0.79759 0.00377 2.50288
0.90091 0.00465 -0.00435
0.89408 -0.00347 0.19280
0.89682 -0.00195 0.38072
0.89752 -0.00402 0.57839
0.90318 -0.00192 0.76840
0.89768 0.00213 0.96189
0.90638 -0.00438 1.15530
0.90178 -0.00144 1.34849
0.89425 0.00848 1.53309
0.90368 -0.00448 1.73537
0.89846 0.00063 1.92329
0.90440 -0.00129 2.10352
0.89696 0.00073 2.30593
0.90308 0.00406 2.49941
0.99404 0.00554 0.00433
0.99880 0.00843 0.19091
0.99545 -0.00062 0.38893
0.99625 0.00780 0.57334
1.00382 0.00218 0.76861
1.00432 -0.00600 0.96697
0.99975 -0.00217 1.15684
1.00424 0.00308 1.35415
1.00432 0.00513 1.53630
1.00043 0.00225 1.73070
1.00121 0.00170 1.92645
0.99959 -0.00140 2.11207
0.99643 0.00469 2.30735
1.00315 -0.00519 2.49225
1.09580 0.00459 0.00427
1.10133 -0.00321 0.19178
1.09881 -0.00138 0.37459
1.09657 -0.00076 0.58299
1.10064 0.00560 0.76766
1.09899 -0.01560 0.96339
1.10219 0.00706 1.15190
1.10038 -0.00282 1.34145
1.09715 -0.00138 1.54388
1.10001 -0.00316 1.73134
1.10087 -0.00270 1.92765
1.09245 -0.00085 2.11804
1.09465 0.00145 2.31286
1.10181 -0.00676 2.49709
1.20493 0.00119 -0.00004
1.20176 0.00288 0.18947
1.19884 0.00057 0.38244
1.19947 0.00519 0.57305
1.20771 0.00752 0.76238
1.19944 0.00137 0.95849
1.19704 -0.00095 1.15680
1.19795 0.00731 1.34731
1.19959 0.00580 1.54097
1.20148 -0.00132 1.73803
1.20325 -0.00081 1.91677
1.20149 -0.00457 2.10852
1.19888 0.00113 2.31282
1.20113 0.00322 2.49510
1.29991 0.00050 0.00345
1.30046 0.00322 0.19029
1.30143 0.00166 0.37962
1.30070 -0.00128 0.56931
1.30383 -0.00145 0.76582
1.29849 0.00055 0.96757
1.29934 0.00189 1.15934
1.30213 0.00427 1.34425
1.30308 -0.00023 1.54276
1.29599 -0.00312 1.73584
1.29922 -0.00144 1.92339
1.29724 0.00533 2.11039
1.29940 0.00139 2.30727
1.29679 -0.00347 2.50170
1.39588 0.00258 -0.00610
1.39778 0.00015 0.18730
1.40261 -0.00007 0.38047
1.39392 -0.00626 0.57713
1.39537 -0.00546 0.76831
1.40911 0.00111 0.96459
1.40085 0.00313 1.14847
1.39828 0.00105 1.34608
1.39923 -0.00266 1.53743
1.39690 -0.00969 1.72599
1.40190 0.00623 1.93033
1.40039 0.00357 2.11902
1.39723 -0.00679 2.30782
1.39295 -0.00128 2.50243
1.49432 0.00013 0.00496
1.50145 0.00209 0.19593
1.50693 0.00061 0.38953
1.49974 -0.00218 0.57818
1.49758 -0.00229 0.76680
1.49082 0.00042 0.95648
1.49957 0.00580 1.15176
1.49783 0.00546 1.34834
1.50391 -0.00142 1.54145
1.49726 -0.00270 1.73315
1.49761 0.00307 1.93264
1.49326 -0.00301 2.11987
1.49942 0.00464 2.30365
1.50133 -0.00060 2.50056
1.60132 -0.00488 -0.00430
1.60560 0.00117 0.19273
1.59982 0.00143 0.37999
1.59600 0.00522 0.57753
1.60340 -0.00242 0.77474
1.60138 0.00192 0.96373
1.59681 -0.00746 1.14955
1.60652 0.00520 1.34477
1.59879 0.00415 1.53779
1.59480 0.00506 1.73268
1.58993 -0.00125 1.92365
1.60192 0.00061 2.11284
1.59954 0.00118 2.30662
1.59851 0.00501 2.49621
1.69860 -0.00813 0.00216
1.70331 0.00219 0.19598
1.70176 0.00137 0.38651
1.69893 0.00475 0.57553
1.69415 0.00340 0.77663
1.69616 -0.00041 0.95880
1.69848 0.00018 1.14888
1.69889 -0.00586 1.34388
1.69526 -0.00424 1.53158
1.70488 0.00204 1.72310
1.69761 -0.00268 1.92031
1.69421 0.00302 2.11380
1.70187 0.00211 2.31319
1.69274 0.00695 2.50508
1.80229 0.00953 0.00082
1.80329 -0.00295 0.19685
1.80067 -0.00180 0.39308
1.79878 0.00004 0.57613
1.79698 0.00213 0.77218
1.80142 -0.00944 0.96557
1.79860 -0.00487 1.15626
1.80225 -0.00417 1.35604
1.79516 -0.00693 1.53384
1.80568 -0.00070 1.72928
1.79975 -0.00239 1.92032
1.79744 0.00283 2.11947
1.79578 0.00096 2.31085
1.79567 -0.00201 2.49585
1.89484 0.00041 -0.00294
1.90252 -0.00012 0.19396
1.89883 -0.00254 0.38425
1.89998 -0.00282 0.57863
1.90299 0.00063 0.77608
1.89747 0.00208 0.95990
1.90094 -0.00332 1.15831
1.90070 0.00477 1.34109
1.89803 -0.00357 1.53633
1.89723 -0.00048 1.73070
1.89984 -0.00222 1.92383
1.90350 -0.00361 2.11539
1.89970 0.00187 2.30744
1.89994 -0.00396 2.50009
1.99631 0.00206 -0.00041
2.00016 -0.00356 0.19552
2.00277 0.00345 0.39352
1.99979 0.00481 0.57643
2.00158 0.00146 0.77029
2.00263 -0.00122 0.96170
2.00214 0.00699 1.15048
1.99278 -0.00194 1.34651
2.00070 0.00037 1.54319
2.00390 -0.00020 1.72889
1.99862 -0.00143 1.92217
1.99371 -0.00184 2.11369
1.99924 -0.00102 2.31038
1.99787 -0.00175 2.50217
2.09906 0.00087 0.00268
2.10169 0.00100 0.19152
2.10273 0.00070 0.38260
2.09940 -0.00487 0.57308
2.09247 -0.00272 0.77457
2.09777 0.00315 0.96152
2.09720 0.00535 1.15617
2.09299 0.00417 1.34185
2.09929 0.00267 1.53726
2.10448 0.00305 1.72446
2.09811 0.00113 1.92078
2.09913 0.00320 2.11665
2.09632 0.00070 2.30524
2.09514 -0.00452 2.50115
2.19989 0.00002 -0.00458
2.19926 -0.00415 0.18860
2.19934 -0.00553 0.38729
2.20995 0.00184 0.57275
2.19892 -0.00622 0.76772
2.20203 0.00236 0.95741
2.20120 0.00463 1.16087
2.19720 -0.00346 1.34637
2.18829 -0.00212 1.53738
2.19816 -0.00634 1.72979
2.19689 0.00303 1.91940
2.19887 -0.00093 2.11765
2.18982 -0.00136 2.31073
2.19855 -0.00611 2.50131
2.30135 -0.00108 -0.00464
2.29704 -0.00126 0.18881
2.29232 -0.00308 0.38437
2.29797 -0.00030 0.57726
2.30359 0.00882 0.77216
2.29438 -0.01063 0.96116
2.30029 -0.00465 1.15493
2.29693 0.00161 1.34485
2.30159 -0.00697 1.53671
2.29941 -0.00570 1.73830
2.29784 0.00556 1.92042
2.29908 0.00474 2.11660
2.30077 0.00106 2.30223
2.29844 -0.00383 2.50079
2.39782 -0.00018 -0.00031
2.39985 -0.00014 0.18970
2.39578 -0.00266 0.38890
2.40150 0.00235 0.58244
2.39528 0.00204 0.76493
2.39866 0.00194 0.96800
2.39687 -0.00038 1.15847
2.39404 0.00145 1.34492
2.39647 0.00059 1.54084
2.39635 0.00152 1.73146
2.39503 0.00621 1.92744
2.39656 -0.00235 2.11847
2.39802 -0.00736 2.31189
2.40004 0.00763 2.50143
2.50076 0.01150 -0.00069
2.49619 0.00092 0.19685
2.49534 -0.00363 0.38641
2.48721 -0.00437 0.58011
2.49765 -0.00651 0.77693
2.49436 -0.00209 0.96005
2.50033 -0.00148 1.15352
2.50023 -0.00035 1.34653
2.49048 0.00176 1.53284
2.49133 0.00553 1.72563
2.50072 -0.00309 1.92036
2.50193 -0.00419 2.11688
2.50152 0.00466 2.30635
2.50419 0.00688 2.50635
2.60234 0.00180 0.01140
2.60893 -0.00307 0.19600
2.60241 0.00029 0.38523
2.60195 0.00375 0.57780
2.60136 0.00557 0.77050
2.60218 0.00396 0.96807
2.60491 0.00151 1.15468
2.59511 0.00117 1.34201
2.59590 0.00260 1.53806
2.60189 -0.00251 1.73557
2.60058 0.00475 1.92577
2.60066 -0.00191 2.11551
2.60331 0.00279 2.30291
2.60410 -0.00086 2.50326
2.69721 0.00255 -0.00319
2.70052 -0.00119 0.19117
2.69773 -0.00061 0.37765
2.70351 0.00385 0.57515
2.69448 -0.00259 0.77302
2.70250 -0.00120 0.96513
2.69583 -0.00245 1.15574
2.69962 -0.00236 1.33611
2.70268 0.00129 1.53149
2.70240 -0.00006 1.73188
2.70378 -0.00296 1.92593
2.70274 0.00305 2.12193
2.70263 -0.00225 2.31489
2.69557 -0.00185 2.49614
2.79959 0.00433 0.00519
2.80185 -0.00244 0.19009
2.79759 0.00381 0.38099
2.80346 -0.00013 0.57761
2.80605 -0.00190 0.77588
2.79436 -0.00330 0.95522
2.79701 0.00233 1.15680
2.80123 0.00107 1.34146
2.79469 0.00122 1.54385
2.79854 -0.00507 1.72464
2.79728 0.00632 1.92225
2.79585 -0.00244 2.11345
2.80106 -0.00264 2.30413
2.79925 0.00187 2.50287
2.90220 -0.00183 -0.00678
2.89681 0.00114 0.18697
2.90101 -0.00236 0.38229
2.90448 0.00087 0.58240
2.89624 0.00452 0.77287
2.88802 -0.00035 0.96771
2.90311 -0.00177 1.15291
2.89479 0.00083 1.33898
2.89594 0.00448 1.53838
2.89855 -0.00042 1.74174
2.90414 -0.00310 1.92974
2.89964 0.00296 2.11304
2.89625 0.00321 2.30462
2.89687 0.00359 2.49535
2.99432 0.00218 -0.00784
2.99699 -0.00146 0.18693
2.99553 0.00266 0.38579
2.99622 0.00212 0.58300
2.99487 0.00025 0.77714
3.00244 0.00325 0.96074
2.99681 0.00457 1.15646
2.99979 -0.00186 1.33916
3.00062 -0.00277 1.53793
3.00268 0.00328 1.73365
3.00902 0.00466 1.92009
2.99673 0.00931 2.11273
2.99982 0.00698 2.31455
2.99978 0.00097 2.49346
3.09637 -0.00146 -0.00002
3.09871 0.00061 0.20108
3.10186 0.00123 0.38462
3.09931 0.00493 0.57296
3.09950 -0.00438 0.76958
3.10048 0.00368 0.96633
3.10265 0.00649 1.16020
3.10126 0.00149 1.33841
3.10128 -0.00002 1.53171
3.09827 0.00383 1.72581
3.10517 0.00190 1.92216
3.09943 0.00332 2.10966
3.10816 -0.00325 2.30463
3.10488 0.00316 2.50530
3.20418 0.00151 -0.00511
3.19811 0.00079 0.19224
3.19179 0.00418 0.39154
3.20586 -0.00407 0.57867
3.19149 0.00676 0.76147
3.20164 0.00465 0.96670
3.20138 -0.00570 1.15344
3.19893 0.00147 1.35010
3.20265 0.00849 1.54111
3.19844 0.00652 1.72951
3.20113 0.00072 1.91390
3.20111 0.00116 2.11455
3.19943 -0.00514 2.30802
3.20601 -0.00071 2.49791
3.29757 0.00807 -0.00542
3.30338 0.00045 0.19999
3.30525 -0.00035 0.37845
3.30572 0.00583 0.57250
3.30298 -0.00320 0.76613
3.29356 0.00373 0.96262
3.30198 0.00581 1.15652
3.30234 0.00300 1.34190
3.29986 -0.00483 1.53486
3.29963 0.00425 1.73900
3.29566 0.00069 1.92279
3.30211 0.00233 2.11683
3.29613 0.00158 2.31126
3.29795 0.00791 2.49906
3.39746 0.00119 -0.00103
3.39453 -0.00010 0.19869
3.40801 -0.00227 0.38824
3.40053 0.00114 0.58199
3.40341 0.00062 0.76552
3.39550 -0.00026 0.96283
3.40201 0.00313 1.15776
3.39039 0.00361 1.34196
3.40446 0.00135 1.54098
3.39784 0.00113 1.72330
3.40438 -0.00132 1.91272
3.40425 0.00671 2.11188
3.40485 -0.00300 2.29863
3.39857 0.00130 2.50053
3.50041 0.00119 0.00087
3.49914 -0.00241 0.19124
3.49859 -0.00121 0.38020
3.49783 0.00033 0.57816
3.49974 -0.00073 0.77137
3.50326 0.00272 0.95454
3.49818 0.00282 1.15591
3.50272 0.00126 1.34274
3.50489 -0.00544 1.54240
3.49993 -0.00589 1.72918
3.50482 -0.00235 1.91823
3.49884 -0.00327 2.11038
3.50175 0.00319 2.30549
3.50209 -0.00155 2.49960
3.60049 0.00597 0.00203
3.59600 0.00206 0.19142
3.59813 -0.00336 0.38451
3.59976 -0.00161 0.57136
3.59317 0.00051 0.76994
3.60873 -0.00071 0.96562
3.60478 -0.00024 1.15415
3.59828 0.00710 1.34012
3.59984 0.00554 1.53803
3.59772 0.00093 1.73288
3.60227 0.00113 1.92608
3.60378 -0.00443 2.11387
3.60348 0.00195 2.30863
3.60269 0.00381 2.49657
3.69509 -0.00461 0.00743
3.69578 -0.00094 0.19157
3.70412 -0.00695 0.38446
3.70486 0.00446 0.57856
3.69896 0.00703 0.76254
3.70392 0.00203 0.96390
3.70106 0.00082 1.15757
3.69539 -0.00499 1.34680
3.70021 0.00065 1.54482
3.69768 0.00301 1.73231
3.70947 -0.00561 1.92089
3.69817 0.00528 2.11210
3.70663 0.00639 2.31115
3.70175 -0.00622 2.50073
3.79428 -0.00145 0.00081
3.79876 0.00380 0.19179
3.79381 -0.00424 0.37952
3.79873 0.00499 0.57895
3.80136 -0.00514 0.77871
3.79989 0.00967 0.95807
3.79773 0.01040 1.14955
3.80167 -0.00135 1.34290
3.80864 -0.00402 1.54205
3.80442 -0.00405 1.72318
3.79288 -0.00320 1.92397
3.80134 -0.00076 2.11496
3.80390 0.00307 2.30921
3.79753 0.00311 2.50072
3.89701 -0.00231 0.00491
3.90738 -0.00212 0.18400
3.90235 -0.00361 0.38755
3.89850 0.00892 0.57737
3.90361 -0.00486 0.75795
3.90054 0.00105 0.96442
3.89778 -0.00517 1.14744
3.90221 0.00284 1.34265
3.89789 -0.00291 1.53088
3.90080 0.00338 1.72988
3.89431 -0.00079 1.92853
3.90852 0.00108 2.11223
3.89206 -0.00618 2.30734
3.90090 0.00103 2.49895
3.99383 -0.00631 0.00059
3.99670 0.00522 0.18647
4.00675 -0.00267 0.38551
4.00089 -0.00138 0.56887
3.99807 0.00609 0.76411
3.99263 -0.00088 0.95989
3.99483 -0.00301 1.15192
3.99835 0.00065 1.34898
4.00155 0.00137 1.54518
4.00438 -0.01165 1.72932
3.99369 -0.00276 1.92616
3.99920 -0.00171 2.12065
3.99398 -0.00038 2.30989
4.00010 -0.00465 2.49991
4.00323 0.00143 0.00127
4.00123 0.00054 0.18734
3.99876 0.00172 0.37216
4.00303 0.00135 0.57259
3.99701 -0.00082 0.77088
3.99850 0.00467 0.96319
3.99685 -0.00188 1.15476
4.00291 0.00272 1.34576
4.00060 -0.00010 1.54175
3.99606 0.00241 1.72336
4.00180 0.00102 1.92308
3.99147 0.00627 2.11898
4.00010 0.00183 2.30393
4.00205 0.00624 2.49529
4.01077 0.09825 0.00331
3.99670 0.10156 0.18721
3.99736 0.09909 0.38199
3.99903 0.10390 0.57181
3.99522 0.10019 0.76697
3.99599 0.10053 0.95928
4.00134 0.09984 1.15304
3.99973 0.10409 1.35141
3.99936 0.09588 1.53242
3.99107 0.09530 1.72736
3.99979 0.09248 1.92880
4.00425 0.10498 2.11333
4.00098 0.09621 2.31389
3.99515 0.09795 2.50569
4.00996 0.19963 -0.00166
3.98997 0.20684 0.19354
3.99246 0.20349 0.38707
3.99858 0.19777 0.57984
4.00094 0.20195 0.77414
4.00477 0.20304 0.96388
3.99489 0.19554 1.15712
4.00259 0.20207 1.34952
3.99778 0.20226 1.53451
4.00025 0.20372 1.72806
4.00781 0.20454 1.92857
3.99916 0.19444 2.11259
4.00221 0.19888 2.31058
4.00060 0.19764 2.50374
4.00541 0.29707 0.00205
4.00063 0.30112 0.19189
3.99499 0.30564 0.38044
3.99652 0.30263 0.57764
3.99682 0.29737 0.76860
3.99826 0.30259 0.95688
4.00145 0.30612 1.15465
3.99645 0.29711 1.34633
3.99750 0.30494 1.53110
4.00656 0.29190 1.73061
3.99567 0.30328 1.91998
3.99547 0.29864 2.11374
3.99226 0.30182 2.29812
4.00471 0.29868 2.50381
3.99760 0.39683 0.00261
3.99766 0.39381 0.19196
3.99449 0.39995 0.39013
4.00385 0.40001 0.57626
3.99873 0.39745 0.77065
3.99937 0.39847 0.96262
3.99193 0.40783 1.15637
3.99442 0.40046 1.34164
3.99784 0.39642 1.54283
3.99232 0.39858 1.72417
3.99992 0.39873 1.91745
4.00576 0.40625 2.11313
4.00209 0.39940 2.30867
4.00613 0.39893 2.50717
3.99885 0.49963 0.00756
4.00110 0.49187 0.19321
3.99487 0.49335 0.38084
4.00130 0.49555 0.57132
3.99848 0.50162 0.76645
3.99477 0.49131 0.95843
4.00338 0.50401 1.15701
3.99930 0.50052 1.35122
3.99653 0.50146 1.53098
4.00273 0.49820 1.72615
4.00309 0.49556 1.91961
4.00615 0.49582 2.11276
3.99727 0.50314 2.30035
4.00500 0.49903 2.49873
3.99641 0.59942 0.00588
4.00085 0.59627 0.19092
4.00214 0.60034 0.38359
4.00242 0.60144 0.57261
3.99234 0.60200 0.77666
3.99672 0.59944 0.96695
4.00696 0.60026 1.15885
4.00300 0.59778 1.33808
3.99636 0.60148 1.54014
3.99799 0.59657 1.72437
3.99328 0.59951 1.91678
3.99994 0.59681 2.11368
4.00850 0.60019 2.30632
3.99931 0.59411 2.50536
4.00339 0.69787 0.00092
3.99731 0.70159 0.18694
4.00107 0.70601 0.38640
3.99764 0.70380 0.58473
4.00292 0.70039 0.76602
4.00174 0.70769 0.95347
4.00391 0.70059 1.15990
3.99949 0.69135 1.35412
3.99536 0.70320 1.53795
3.99984 0.70055 1.72859
4.00075 0.70123 1.92628
4.00050 0.70127 2.12070
3.99639 0.70028 2.30961
4.00414 0.69975 2.50040
3.99862 0.80496 -0.00128
4.00274 0.79959 0.19243
3.99511 0.80023 0.38450
3.99407 0.79704 0.57511
3.99389 0.79513 0.77511
3.99588 0.79657 0.95596
4.00491 0.80367 1.15512
4.00034 0.79803 1.34502
3.99730 0.80263 1.54123
4.00365 0.80820 1.73360
4.00254 0.80401 1.91691
4.00002 0.79395 2.12169
3.99803 0.80709 2.31194
3.99779 0.79336 2.49550
4.00415 0.89871 -0.00593
3.99910 0.90677 0.19874
3.99811 0.90123 0.38707
3.99408 0.89787 0.57530
4.00162 0.89796 0.76364
4.00130 0.89743 0.95663
3.99510 0.89911 1.15965
3.99930 0.90429 1.33717
3.99665 0.89497 1.53736
4.00308 0.89781 1.72579
4.00379 0.89695 1.92417
3.99734 0.90207 2.11385
4.00318 0.90248 2.31658
3.99968 0.89610 2.49536
3.99761 1.00150 -0.00286
4.00608 1.00080 0.18840
3.99815 0.99745 0.38533
3.99590 1.00513 0.57550
3.99905 1.00369 0.76624
3.99999 1.00717 0.96318
4.00118 0.99809 1.14987
4.00700 0.99936 1.35375
3.99726 1.00502 1.53764
4.00167 1.00487 1.73254
4.00321 0.99375 1.92123
4.00818 0.99908 2.11666
3.99935 0.99751 2.30172
3.99543 1.00673 2.49968
3.99524 1.09638 0.00349
3.99621 1.09750 0.18784
3.99496 1.10660 0.38405
3.99871 1.09759 0.57977
4.00025 1.10117 0.76978
3.99857 1.09808 0.95460
3.99803 1.10865 1.14889
4.00002 1.10134 1.35093
4.01063 1.09841 1.53495
4.00424 1.10085 1.73879
4.00290 1.09732 1.92229
4.00169 1.10200 2.11085
3.99230 1.09358 2.31016
3.99939 1.09266 2.49780
3.99225 1.19895 -0.00346
3.99777 1.19966 0.19304
4.00024 1.20517 0.39422
4.00341 1.19924 0.57993
3.99709 1.19670 0.76575
4.00117 1.20495 0.97044
4.00530 1.20279 1.15109
4.00031 1.20217 1.34566
4.00745 1.19672 1.53560
4.00152 1.20803 1.72352
3.99662 1.20515 1.92036
4.00824 1.19671 2.11967
3.99965 1.20184 2.30355
3.99358 1.20310 2.49788
3.99633 1.29558 -0.00418
4.00541 1.29631 0.19014
4.00787 1.29827 0.38459
4.00147 1.29882 0.57417
4.00512 1.30128 0.76671
3.99446 1.29537 0.95744
3.99138 1.30470 1.15425
4.00215 1.29432 1.34421
3.99904 1.30030 1.53764
3.99502 1.30437 1.73361
4.00030 1.30413 1.92791
4.00558 1.30065 2.11413
3.99808 1.30356 2.30489
3.99635 1.30222 2.50209
4.00255 1.39660 0.00120
4.00366 1.39808 0.19124
3.99881 1.40608 0.38822
3.99464 1.39392 0.57952
3.99915 1.40213 0.77029
4.00404 1.39350 0.95935
4.00100 1.40094 1.15005
3.99789 1.39766 1.34633
4.00280 1.39890 1.53785
3.99162 1.39576 1.73818
3.99314 1.40546 1.92189
3.99215 1.40583 2.12052
3.99799 1.40347 2.30627
4.00020 1.40067 2.49908
4.00210 1.50154 -0.00209
4.00118 1.49792 0.19284
3.99801 1.50039 0.39102
3.99738 1.49415 0.58330
4.00117 1.49740 0.76823
3.99634 1.50375 0.96439
4.00251 1.50088 1.14565
3.99525 1.50114 1.33553
3.99968 1.49590 1.54099
3.99921 1.50424 1.73212
4.00045 1.49611 1.92559
4.00952 1.49316 2.11129
4.00666 1.50205 2.30651
4.00313 1.50133 2.49739
3.99733 1.60342 0.00137
4.00431 1.60262 0.18985
4.00610 1.59631 0.38280
3.99687 1.59440 0.57941
3.99579 1.59726 0.77300
4.00346 1.59751 0.95631
3.99958 1.59361 1.14980
3.99845 1.59937 1.34393
3.99942 1.60553 1.54097
4.00552 1.60358 1.73170
3.99514 1.59466 1.92299
3.99837 1.59626 2.11702
4.00490 1.59973 2.30804
3.99781 1.59725 2.50789
3.99497 1.69936 -0.00179
3.99956 1.70419 0.19628
3.99944 1.70449 0.38155
4.00142 1.70712 0.57461
4.00082 1.70599 0.76586
4.00026 1.69874 0.95707
4.00162 1.69662 1.16047
4.00008 1.69916 1.34632
4.00041 1.69920 1.53869
3.99770 1.69800 1.73288
3.99145 1.69680 1.92311
4.00137 1.69844 2.11593
3.99860 1.69256 2.31145
4.00107 1.69617 2.50590
4.00271 1.79750 0.00443
4.00216 1.80332 0.18990
3.99777 1.79671 0.38245
3.99075 1.80434 0.57220
4.00228 1.79481 0.76970
3.99523 1.79992 0.95514
3.99763 1.80264 1.15470
4.00068 1.79657 1.33737
3.99643 1.79796 1.54438
4.00228 1.80127 1.72844
3.99708 1.80256 1.92159
3.99865 1.80767 2.11146
3.99887 1.79900 2.30509
3.99435 1.80509 2.49435
3.99637 1.90103 -0.00497
3.99938 1.89897 0.19136
3.99944 1.89437 0.38242
4.00514 1.90466 0.57460
4.00434 1.89624 0.76377
3.99193 1.89555 0.96338
3.99870 1.90665 1.15720
3.99858 1.89911 1.34529
4.00400 1.89846 1.53840
3.99706 1.90520 1.72937
3.99741 1.89392 1.92694
3.99763 1.89972 2.11374
3.99925 1.89207 2.30455
3.99567 1.90871 2.50539
4.00175 2.00995 0.00511
3.99462 1.99486 0.19338
3.99972 2.00085 0.38132
4.00738 1.99860 0.58140
4.00584 1.99766 0.77154
4.00637 2.00583 0.96455
4.00176 2.00032 1.15892
4.00233 2.00050 1.34426
3.99459 1.99931 1.54592
3.99807 1.99744 1.72981
3.99915 1.99776 1.92565
4.00130 2.00473 2.11779
4.00075 1.99159 2.30848
3.99739 2.00431 2.50029
3.99695 2.09783 -0.00481
3.99781 2.10126 0.19702
4.00208 2.10324 0.38818
3.99871 2.10581 0.57152
4.00049 2.09790 0.76137
4.00664 2.09201 0.96430
4.00717 2.09919 1.15338
3.99240 2.09900 1.35196
3.99791 2.09610 1.52920
4.00514 2.10165 1.72956
4.00417 2.09788 1.92174
4.00850 2.09641 2.11655
4.00089 2.10039 2.30772
3.99477 2.09945 2.49903
3.99732 2.19667 -0.00401
3.99676 2.20164 0.19245
4.00662 2.20241 0.38224
3.99784 2.19931 0.57552
4.00001 2.20776 0.76862
4.00053 2.19523 0.95554
3.99946 2.19833 1.15465
4.00543 2.19796 1.34342
4.00391 2.19826 1.53869
3.99958 2.20752 1.72404
3.99672 2.20260 1.92772
3.99588 2.20472 2.11350
3.99709 2.19748 2.30911
4.00194 2.19650 2.50082
3.99847 2.29523 0.00677
3.99613 2.30041 0.18765
3.99827 2.30036 0.38526
3.99590 2.29952 0.57832
4.00594 2.30319 0.77352
4.00253 2.29733 0.96022
4.00363 2.29725 1.14936
3.99982 2.29273 1.34302
3.99544 2.29835 1.54371
4.00928 2.30237 1.72693
4.00292 2.30168 1.92067
4.00352 2.29807 2.11307
4.00023 2.30274 2.30622
4.00142 2.29268 2.50117
3.99809 2.39791 -0.01010
3.99420 2.39302 0.19473
3.99631 2.40109 0.38725
3.99781 2.39589 0.58177
4.00105 2.39507 0.77115
3.99734 2.40186 0.96484
3.99673 2.40197 1.14180
4.00219 2.39216 1.35626
4.00142 2.39755 1.54299
3.99686 2.40048 1.72963
4.00000 2.39776 1.92483
3.99704 2.40045 2.11790
3.99762 2.40334 2.30964
3.99882 2.39794 2.49980
3.99819 2.49794 -0.00053
3.99915 2.50043 0.19799
4.00365 2.50340 0.38668
3.99758 2.49576 0.57601
4.00474 2.50480 0.76340
3.99290 2.50670 0.96724
3.99749 2.49969 1.15405
4.00441 2.49805 1.34852
4.00110 2.50120 1.54268
4.00059 2.49487 1.73438
3.99805 2.50359 1.92414
3.99609 2.50102 2.11284
4.00108 2.49838 2.31173
3.99715 2.49853 2.49720
3.99682 2.59892 0.00086
4.00224 2.60020 0.19049
3.99376 2.60377 0.38258
4.00160 2.59574 0.58298
4.00277 2.59645 0.77062
4.00537 2.59929 0.95473
4.00183 2.60739 1.14746
4.00410 2.59907 1.34579
4.00077 2.60005 1.54191
3.99534 2.59966 1.72703
3.99796 2.61189 1.91969
4.00180 2.60123 2.10770
3.99541 2.59274 2.30708
3.99474 2.59641 2.49386
4.00269 2.70239 0.00595
3.99930 2.70295 0.19683
4.00837 2.69500 0.38137
3.99608 2.69445 0.57978
4.00291 2.69441 0.76489
4.00125 2.69803 0.96245
3.99932 2.70424 1.15835
3.99268 2.70543 1.34423
3.99546 2.70241 1.53454
3.99497 2.69862 1.73621
3.99273 2.69583 1.91631
3.99518 2.69941 2.11011
4.00124 2.70042 2.31058
4.00768 2.69605 2.49808
3.99758 2.79819 0.00161
4.00240 2.79798 0.19763
3.99891 2.79954 0.38106
4.00267 2.80298 0.57693
3.99139 2.79902 0.77160
3.99833 2.79961 0.96359
3.99272 2.80318 1.14627
4.00038 2.80230 1.34415
4.00187 2.80198 1.53633
3.99830 2.80322 1.73200
4.00240 2.80164 1.92080
3.99577 2.79591 2.11004
3.99196 2.79764 2.30409
4.00026 2.79909 2.50149
4.00450 2.89608 -0.00100
3.99848 2.89651 0.18754
4.00024 2.90105 0.38351
4.00225 2.90125 0.58097
4.00017 2.90061 0.77371
3.99827 2.90185 0.96552
4.00361 2.90333 1.15635
3.99887 2.90394 1.34414
3.99832 2.89915 1.54063
4.00644 2.90529 1.73587
4.00277 2.90062 1.91961
3.99767 2.90056 2.12221
4.00231 2.90149 2.31002
3.99464 2.89736 2.50207
4.00409 2.99763 0.00224
3.99247 3.00202 0.19802
3.99920 2.99754 0.39532
4.00020 3.00553 0.57433
3.99525 2.99388 0.77322
3.99337 2.99202 0.95909
3.99845 2.99890 1.14889
3.99677 3.00023 1.33842
4.00039 3.00242 1.54395
4.00182 3.00463 1.73197
4.00598 3.00051 1.93143
4.00240 2.99777 2.11612
3.99303 3.00484 2.30660
4.00493 3.00884 2.50004
4.00015 2.99940 0.00149
4.00887 3.00514 0.19327
4.00424 2.99177 0.38511
3.98868 3.00450 0.56825
4.00219 2.99639 0.77947
3.99494 2.99868 0.96831
4.00177 3.00083 1.15293
4.00038 2.99700 1.34549
3.99983 3.00292 1.53879
4.00339 2.99405 1.73641
4.00183 3.00656 1.92521
3.99959 3.00056 2.11077
3.99910 3.00075 2.30823
3.99345 3.00196 2.49599
3.89914 3.00341 -0.00283
3.89950 2.99824 0.19447
3.89539 2.99380 0.37632
3.90870 3.00271 0.58340
3.89850 3.00449 0.76745
3.89495 3.00339 0.96036
3.90104 3.00168 1.15621
3.89915 2.99076 1.34140
3.90226 3.00779 1.53832
3.90552 2.99049 1.73673
3.89546 2.99595 1.92188
3.90119 2.99521 2.11937
3.89423 3.00054 2.30416
3.90085 2.99193 2.49608
3.79500 3.00364 -0.00896
3.80692 2.99795 0.19307
3.78981 2.99681 0.38797
3.80600 2.99604 0.58145
3.80070 3.00257 0.76838
3.80606 2.99317 0.96411
3.80615 3.00308 1.15270
3.80207 3.00105 1.34505
3.80428 3.00537 1.53302
3.80743 3.00021 1.73009
3.80371 2.99693 1.92495
3.79869 2.99986 2.11693
3.80008 2.99869 2.31251
3.80229 3.00200 2.50354
3.69164 3.00364 0.00923
3.69586 3.01007 0.18515
3.69721 3.00270 0.38222
3.69644 3.00061 0.57867
3.70350 2.99891 0.76112
3.70229 3.00518 0.95969
3.70315 2.99455 1.15096
3.69525 3.00038 1.34147
3.70663 3.00205 1.53864
3.70286 3.00511 1.73232
3.69665 3.00035 1.92133
3.70215 2.99845 2.11567
3.70420 2.99681 2.30710
3.69907 2.99756 2.51024
3.60468 2.99737 -0.00257
3.60137 3.00507 0.19190
3.60341 2.99301 0.38623
3.60530 3.00065 0.57438
3.60445 2.99607 0.76810
3.60246 2.99637 0.97214
3.59924 2.99195 1.15826
3.60145 2.99985 1.34813
3.60257 2.99960 1.54124
3.60159 3.00384 1.72887
3.59849 3.00255 1.92591
3.59994 3.00042 2.11923
3.59662 2.99522 2.31090
3.60157 2.99721 2.49888
3.49698 2.99793 0.00531
3.50022 2.99556 0.19442
3.50212 2.99976 0.38435
3.50202 3.00308 0.57654
3.49774 2.99909 0.77315
3.50310 2.99832 0.97290
3.51005 2.99579 1.15797
3.49601 3.00018 1.35237
3.50310 2.99522 1.54053
3.49019 2.99366 1.73091
3.49670 3.00631 1.92361
3.50511 3.00047 2.11606
3.50069 3.00787 2.31416
3.49553 2.99896 2.50674
3.39398 3.00736 0.00254
3.39592 2.99111 0.19255
3.40697 3.00094 0.38683
3.40195 2.99902 0.57851
3.39749 2.99771 0.76554
3.39850 2.99850 0.96229
3.39862 2.99337 1.14942
3.39893 3.00212 1.34500
3.40156 2.99385 1.54322
3.39815 2.99678 1.73092
3.40180 2.99910 1.92572
3.39294 2.99960 2.11883
3.40192 2.99887 2.30899
3.40703 2.99548 2.50105
3.30050 3.00279 -0.00456
3.30641 3.00349 0.20158
3.30032 2.99759 0.37743
3.29811 2.99492 0.56888
3.29654 2.99895 0.76856
3.31034 3.00624 0.96232
3.30288 2.99849 1.15219
3.30199 2.99955 1.35256
3.30301 2.99586 1.53250
3.30064 3.00482 1.72659
3.29628 3.00961 1.92320
3.29867 3.00995 2.11421
3.29548 3.00033 2.30270
3.29366 3.00386 2.49777
3.20196 2.99557 -0.00096
3.19508 2.99623 0.19931
3.20300 3.00273 0.38453
3.19861 2.99990 0.57520
3.20206 2.99963 0.77002
3.21071 2.99999 0.95719
3.20638 2.99588 1.14971
3.20725 3.00179 1.34212
3.20040 3.00567 1.53485
3.20087 3.00978 1.73027
3.19333 2.99849 1.92196
3.19793 3.00701 2.11624
3.20017 3.00225 2.30833
3.19230 3.00273 2.50221
3.10158 3.00296 0.00448
3.10557 2.99361 0.18929
3.09593 2.99818 0.38609
3.09286 3.00268 0.57087
3.09603 2.99512 0.76726
3.10128 2.99177 0.96778
3.09614 3.00866 1.14769
3.10345 3.00228 1.34522
3.09427 2.99813 1.54362
3.10343 3.00344 1.73674
3.10195 2.99975 1.92657
3.10279 3.00551 2.11730
3.10245 3.00405 2.30769
3.09566 2.99986 2.50040
3.00451 3.00261 -0.00200
3.00093 2.99881 0.19033
3.00326 2.99582 0.38887
2.99863 3.00173 0.57532
2.99735 2.99748 0.77261
2.99321 3.00047 0.95896
2.99797 3.00729 1.15104
2.99705 2.99381 1.33867
2.99903 2.99726 1.54123
3.00081 2.99636 1.73664
3.00440 3.00008 1.92621
3.00685 3.00157 2.11320
3.00047 3.00069 2.30880
3.00458 3.00127 2.49339
2.89680 2.99573 0.00142
2.89893 3.00141 0.19033
2.89709 3.00407 0.38623
2.89904 2.99335 0.57178
2.89526 2.99976 0.76540
2.90428 3.00297 0.96088
2.89659 2.99799 1.15501
2.90008 2.99915 1.35085
2.89860 2.99945 1.54068
2.90108 3.00432 1.72880
2.89689 3.00263 1.92359
2.90317 3.00289 2.11821
2.89610 2.99961 2.30553
2.89813 3.00049 2.50606
2.80835 2.99671 -0.00016
2.79678 2.99688 0.19123
2.79351 3.00144 0.38011
2.79930 2.99681 0.57964
2.80320 3.00242 0.76899
2.79356 2.99576 0.96331
2.79756 2.99872 1.15590
2.80845 2.99702 1.34788
2.79772 2.99550 1.53708
2.79899 2.99826 1.73280
2.79884 2.99175 1.92519
2.80192 2.99426 2.11268
2.79807 3.00271 2.30669
2.80380 2.99697 2.50341
2.70001 2.99852 0.00333
2.70318 3.00230 0.19179
2.70419 3.00477 0.38337
2.70043 2.99393 0.57420
2.70389 2.99618 0.77057
2.69985 3.00657 0.96210
2.69249 2.99831 1.15554
2.70243 3.00186 1.35124
2.70101 2.99243 1.53590
2.70085 2.99726 1.73216
2.70113 3.00645 1.92025
2.69519 2.99498 2.11348
2.70200 2.99937 2.30494
2.69557 2.99906 2.50248
2.60446 3.00499 0.00284
2.60122 2.99751 0.19355
2.60594 3.00043 0.38760
2.60001 3.00189 0.57322
2.59488 2.99607 0.76144
2.60344 3.00953 0.96070
2.59682 3.00142 1.16022
2.60036 3.00514 1.34612
2.60093 2.99393 1.53986
2.59628 2.99581 1.72450
2.60240 3.00914 1.92019
2.59892 2.99856 2.11715
2.60393 2.99985 2.30609
2.59281 3.00253 2.50032
2.49277 2.99530 -0.00394
2.49822 2.99641 0.19542
2.49619 2.99798 0.38043
2.50276 2.99828 0.57694
2.50221 2.99996 0.76866
2.50301 3.00150 0.96200
2.49846 3.00065 1.15097
2.50598 3.00114 1.34796
2.49743 2.99911 1.54122
2.49220 2.99892 1.72820
2.49546 3.00272 1.92001
2.49584 3.00400 2.10787
2.50413 3.00426 2.29951
2.49909 3.00115 2.50407
2.39788 2.99934 0.00298
2.39639 3.00233 0.19673
2.39581 3.00120 0.38493
2.39580 3.00061 0.57589
2.39682 2.99856 0.76532
2.40159 3.00164 0.96456
2.40040 3.00084 1.15161
2.40261 2.99750 1.34841
2.39817 2.99690 1.54002
2.40654 3.00342 1.72897
2.39444 2.99399 1.92420
2.40066 2.99228 2.11475
2.40431 2.99990 2.30756
2.39536 3.00276 2.49717
2.29772 3.00458 -0.00405
2.29919 2.99996 0.19385
2.30615 2.99993 0.38670
2.29963 2.99330 0.58137
2.30293 3.00481 0.76502
2.30057 3.00761 0.97036
2.30030 3.00118 1.15001
2.29918 2.99694 1.35034
2.29839 2.99963 1.54164
2.29947 3.00416 1.73010
2.30300 2.99595 1.92301
2.29410 2.99655 2.11243
2.30773 2.99577 2.31545
2.30264 3.00185 2.49708
2.20326 3.00755 0.00392
2.20159 3.00030 0.19507
2.20064 2.99917 0.38810
2.19867 3.00355 0.58534
2.20384 2.99807 0.76848
2.20424 2.99671 0.96901
2.19922 3.00055 1.15553
2.21303 2.99965 1.34386
2.19839 3.00263 1.54525
2.19593 2.99859 1.72989
2.19846 3.00600 1.92662
2.20567 2.99808 2.11100
2.19980 2.99701 2.30855
2.20424 2.99125 2.50295
2.10857 2.99510 0.00129
2.09529 2.99651 0.19276
2.10730 3.00644 0.38507
2.10411 2.98894 0.57551
2.09900 3.00229 0.76610
2.09646 2.99631 0.96382
2.10150 2.99853 1.15759
2.09944 2.99749 1.34338
2.09162 3.00066 1.54124
2.10199 3.01064 1.72936
2.09484 3.00715 1.92934
2.09686 2.99976 2.11343
2.10216 2.99865 2.31077
2.10393 3.00793 2.49835
2.00310 3.00417 0.00097
2.00649 3.00177 0.19288
2.00851 2.99692 0.38939
1.99706 3.00239 0.58019
2.00383 3.00581 0.76657
1.99502 3.00085 0.96284
1.99968 3.00998 1.15436
1.99489 2.99715 1.34805
1.99964 3.00475 1.54203
2.00369 3.00345 1.73405
1.99953 3.00626 1.92760
1.99722 3.00179 2.11956
2.00581 3.00192 2.31116
1.99221 2.99900 2.50004
1.89593 2.99999 -0.00104
1.89536 3.00226 0.18967
1.89844 3.00388 0.38203
1.90560 3.00189 0.57359
1.89419 3.00033 0.76630
1.89528 2.99491 0.95946
1.89810 3.00065 1.14884
1.89788 2.99751 1.34314
1.90521 3.00109 1.54705
1.90317 3.00148 1.73579
1.90469 2.99352 1.91986
1.89910 3.00114 2.11651
1.89383 3.00151 2.30948
1.89640 2.99533 2.50228
1.79823 3.00340 0.00405
1.80150 2.99426 0.18874
1.79268 2.99796 0.38106
1.80625 3.00258 0.57593
1.79512 3.00722 0.76572
1.79194 2.99699 0.95578
1.80327 2.99589 1.15590
1.80602 2.99632 1.34568
1.80764 2.99893 1.53744
1.79875 2.99700 1.72759
1.80418 3.00496 1.91947
1.80803 3.00659 2.11415
1.79338 2.99591 2.30688
1.79903 3.00687 2.49489
1.69954 2.99923 0.00329
1.69906 2.99888 0.19223
1.69815 3.00220 0.38682
1.69652 3.00341 0.57824
1.69953 3.00391 0.77437
1.69694 2.99856 0.96197
1.70665 3.00160 1.15479
1.70802 2.99905 1.35007
1.69729 3.00039 1.54212
1.69713 2.99737 1.73024
1.70600 2.99340 1.92070
1.70397 2.99122 2.12295
1.70066 3.00802 2.30390
1.70331 2.99740 2.50114
1.59704 2.99746 -0.00687
1.58866 2.99978 0.20176
1.59883 2.99805 0.38657
1.59732 2.99794 0.57188
1.59629 3.00431 0.76582
1.60081 2.99852 0.95806
1.60124 3.00331 1.14896
1.60140 3.00314 1.34493
1.59968 3.00002 1.53928
1.59549 2.99794 1.73242
1.59697 2.99965 1.92279
1.59688 3.00053 2.12062
1.59683 2.99754 2.30705
1.59517 2.99759 2.49407
1.49253 3.00134 0.00335
1.50695 2.99936 0.19613
1.49882 2.99706 0.38720
1.49899 3.00263 0.57809
1.49610 2.99560 0.76509
1.49736 3.00363 0.96109
1.50569 3.00218 1.15314
1.49657 2.99214 1.35049
1.50522 2.99907 1.54546
1.49974 2.99990 1.73533
1.50005 2.99818 1.92164
1.49313 2.99969 2.11530
1.50488 3.00258 2.30471
1.50323 3.00117 2.50626
1.40361 2.99959 0.00417
1.39851 2.99616 0.19328
1.40223 3.00418 0.38450
1.40023 3.00290 0.57663
1.40644 2.99406 0.76417
1.39890 3.00443 0.96117
1.39458 3.00311 1.14935
1.40513 3.00362 1.35218
1.40502 3.00438 1.54132
1.39876 2.99960 1.73083
1.40079 2.99785 1.92015
1.40568 2.99532 2.11970
1.40814 2.99593 2.31326
1.39954 3.00586 2.49775
1.30518 2.99725 -0.00523
1.30708 2.99667 0.18722
1.30014 2.99875 0.38938
1.29654 2.99826 0.58009
1.29712 3.00414 0.77353
1.30794 3.00840 0.95865
1.29714 2.99635 1.15378
1.29950 2.99913 1.34156
1.30520 2.99407 1.53631
1.30320 3.00251 1.72994
1.30381 2.99868 1.93101
1.30419 2.99701 2.11882
1.29912 3.00154 2.31259
1.29670 3.00562 2.49893
1.20438 3.00177 -0.00220
1.19456 2.99510 0.19350
1.19565 2.99802 0.38363
1.19744 2.99821 0.57935
1.20448 3.00187 0.77181
1.20214 2.99825 0.96228
1.19324 3.00032 1.15214
1.20495 2.99257 1.34187
1.20912 3.00294 1.54399
1.19685 2.99418 1.73270
1.20064 3.00218 1.92926
1.20342 2.99381 2.11334
1.19117 3.00219 2.30583
1.19492 3.00144 2.49558
1.10403 3.00287 0.00894
1.09699 3.00382 0.19050
1.09518 3.00743 0.38037
1.10660 2.99858 0.57982
1.09829 2.99691 0.76563
1.09833 3.00098 0.96714
1.09683 3.00011 1.15277
1.09966 2.99591 1.34063
1.09812 2.99987 1.54808
1.10599 2.99838 1.72559
1.09316 3.00377 1.92789
1.10831 2.99895 2.11694
1.09863 3.00570 2.31141
1.09690 3.00068 2.49600
1.00044 2.99434 0.00079
1.00477 3.00506 0.18735
1.00020 2.99466 0.38898
1.00163 2.99546 0.57327
1.00224 2.99321 0.76951
1.00145 2.99736 0.96048
1.00036 3.00231 1.14885
0.99775 3.00320 1.33571
1.00392 3.00535 1.54605
0.99056 2.99816 1.72818
1.00581 3.00267 1.92717
1.00294 2.99390 2.11706
0.99129 3.00177 2.30850
0.99928 3.00095 2.50286
0.89687 3.00143 0.00582
0.90158 3.00092 0.19225
0.89481 3.00571 0.38297
0.90016 2.99881 0.57550
0.89764 2.99718 0.77296
0.90546 3.00097 0.95692
0.89974 3.00888 1.15510
0.89922 2.99672 1.34827
0.89904 3.00514 1.54281
0.90206 3.00030 1.73292
0.90126 2.99906 1.92840
0.89963 2.99786 2.10867
0.89914 2.99387 2.31074
0.89678 2.99634 2.49094
0.80110 2.99879 0.00280
0.79629 3.00409 0.19526
0.80656 2.99818 0.38913
0.79674 3.00042 0.57598
0.80556 3.00175 0.77707
0.80160 3.00072 0.96128
0.80110 2.99714 1.14959
0.79788 2.99857 1.34412
0.80875 2.99930 1.53730
0.80506 3.00363 1.72788
0.80344 3.00408 1.91978
0.79948 3.00288 2.11903
0.79706 3.00482 2.30991
0.79637 2.99906 2.50737
0.70160 2.99246 -0.00495
0.70607 2.99980 0.19300
0.69535 3.00618 0.38417
0.69760 2.99952 0.58898
0.70013 3.00151 0.76351
0.69749 2.99256 0.96537
0.69728 2.99821 1.15436
0.70146 3.00825 1.34626
0.70423 2.99715 1.53449
0.69715 2.99977 1.73181
0.70423 3.00369 1.92083
0.70119 3.00433 2.11004
0.69731 2.99492 2.31013
0.69991 2.99652 2.50204
0.59858 3.00395 -0.00078
0.60132 2.99445 0.19412
0.59849 2.99323 0.37737
0.59611 3.00313 0.56845
0.60470 2.99930 0.77017
0.60302 2.99684 0.96142
0.59942 2.99764 1.15727
0.60049 3.00302 1.34959
0.60160 3.00309 1.53397
0.59476 3.00581 1.72926
0.60261 3.00439 1.92455
0.60323 2.99515 2.11013
0.59537 2.99757 2.29727
0.59839 2.99259 2.50399
0.50173 3.00194 -0.00775
0.49843 3.00582 0.18946
0.50343 2.99645 0.38400
0.51059 3.00268 0.58219
0.49981 2.99386 0.76342
0.50332 3.00120 0.96736
0.49810 3.00142 1.15106
0.50266 2.99167 1.34630
0.49645 2.99948 1.54252
0.50155 3.00251 1.72759
0.48931 2.99550 1.92412
0.49532 3.00148 2.10802
0.49937 3.00533 2.30970
0.49660 3.00272 2.49947
0.39750 3.00450 0.00152
0.39216 2.99744 0.19848
0.39954 3.00792 0.38763
0.40379 2.99334 0.57501
0.40603 3.00549 0.77002
0.39735 2.99641 0.96045
0.39957 2.99608 1.14995
0.40227 3.00507 1.34781
0.40047 3.00546 1.53365
0.39935 2.99841 1.72867
0.39616 3.00400 1.92544
0.39907 3.00613 2.10941
0.39925 2.99625 2.31440
0.39928 3.00125 2.49859
0.30440 3.00219 0.00195
0.30063 3.00344 0.19436
0.30249 2.99429 0.38950
0.30436 3.00278 0.57580
0.30018 2.99573 0.76732
0.30802 2.99955 0.95935
0.30119 2.99954 1.14962
0.30199 2.99830 1.34641
0.30479 3.00111 1.54387
0.30219 2.99737 1.72776
0.30039 2.99591 1.92492
0.30603 2.99916 2.11494
0.30767 3.00357 2.31000
0.30389 3.00072 2.50631
0.20378 2.99062 0.00306
0.20165 2.99397 0.19689
0.19982 2.99780 0.37635
0.19995 3.00005 0.57943
0.20100 2.99993 0.76618
0.19877 3.00226 0.95482
0.19798 3.00000 1.15370
0.20272 3.00728 1.34489
0.19907 2.99844 1.52995
0.20483 3.00135 1.73360
0.20016 3.00344 1.92216
0.20284 2.99755 2.12027
0.19541 3.00283 2.30877
0.20334 2.99898 2.49722
0.09790 2.99892 -0.00053
0.09622 2.99882 0.18494
0.09847 2.99929 0.39244
0.10635 3.00492 0.57999
0.09988 2.99324 0.76790
0.09836 2.99709 0.96515
0.09900 2.99687 1.14729
0.10552 3.00391 1.34598
0.10175 2.99960 1.54145
0.10135 2.99827 1.72834
0.09496 2.99865 1.92769
0.09292 3.00186 2.11722
0.09757 2.99370 2.30528
0.09760 3.00227 2.50201
-0.00112 3.00234 -0.00327
0.00016 3.00446 0.19103
-0.00030 2.99460 0.38386
0.00193 2.99810 0.58276
0.00261 3.00032 0.77303
0.00493 3.00500 0.95760
-0.00278 3.00010 1.15092
0.00788 2.99249 1.34697
-0.00588 2.99568 1.54364
-0.00046 3.00049 1.73266
-0.00189 3.00238 1.92551
0.00004 2.99856 2.11624
0.00383 2.99938 2.30738
-0.00531 3.00351 2.49750
0.00372 3.00211 0.00509
0.00172 2.99647 0.20170
0.00498 3.00008 0.38197
-0.00421 3.00624 0.57603
0.00137 3.00344 0.77052
0.00218 2.99953 0.96447
0.00415 2.99966 1.15527
-0.00132 3.00113 1.35158
0.00156 2.99860 1.53827
-0.00423 2.99898 1.73595
0.00629 2.99309 1.92600
0.00090 2.99327 2.11711
0.00156 3.00262 2.30269
-0.00190 3.00175 2.49361
0.00598 2.90144 -0.00186
0.00540 2.90485 0.19081
-0.00371 2.90315 0.39554
0.00102 2.89859 0.57250
0.00315 2.89496 0.77177
0.00209 2.90101 0.96053
0.00836 2.90032 1.16122
0.00250 2.90550 1.34435
0.00209 2.90025 1.53769
-0.00481 2.90048 1.73970
0.00728 2.89950 1.93089
0.00078 2.89682 2.11518
0.00208 2.90308 2.30853
0.00015 2.90253 2.50055
-0.00402 2.79951 0.00006
-0.00176 2.80183 0.19292
-0.00254 2.80517 0.38311
0.00101 2.79956 0.57399
0.00224 2.80099 0.77217
0.00767 2.80031 0.96075
-0.01145 2.80215 1.15122
-0.00296 2.79774 1.34799
-0.00107 2.79899 1.53724
-0.00011 2.79873 1.72790
-0.00428 2.80377 1.92502
-0.00015 2.79736 2.12226
-0.00161 2.80268 2.30289
0.00432 2.80279 2.49649
0.00033 2.69589 -0.00127
-0.00513 2.70076 0.19636
-0.00261 2.69844 0.38587
-0.00713 2.70049 0.57503
0.00011 2.68907 0.76493
-0.00134 2.70303 0.95622
-0.00538 2.69870 1.15175
0.00092 2.69688 1.34636
-0.00416 2.70016 1.54200
-0.00242 2.69796 1.73631
-0.00348 2.69565 1.91655
-0.00348 2.69944 2.11344
0.00860 2.69662 2.30381
-0.00059 2.70455 2.49810
0.00054 2.60065 -0.00183
-0.00030 2.59519 0.18208
-0.00188 2.60341 0.38429
-0.00428 2.59877 0.58196
-0.00404 2.60015 0.76951
0.00349 2.59734 0.96614
-0.00191 2.60277 1.15800
0.00681 2.60702 1.34222
0.00575 2.59390 1.53633
0.00106 2.59471 1.73102
0.00197 2.60347 1.92238
0.00498 2.60019 2.11874
0.00404 2.60740 2.30729
0.00226 2.59962 2.49928
-0.00335 2.50399 -0.00379
-0.00487 2.49935 0.19011
0.00914 2.50104 0.39344
-0.00564 2.49714 0.58235
-0.00253 2.49729 0.77135
-0.00280 2.49719 0.96463
-0.00114 2.50055 1.15843
0.00498 2.50343 1.35413
-0.00145 2.49631 1.54574
0.00152 2.49894 1.72225
0.00425 2.50340 1.92019
0.00159 2.50371 2.11005
0.00302 2.50090 2.30407
-0.00160 2.49836 2.49723
-0.00140 2.39244 -0.00072
0.00723 2.40138 0.18952
0.00191 2.40263 0.38661
0.00435 2.39601 0.58099
-0.00472 2.40066 0.76285
0.00102 2.39311 0.96229
0.01143 2.39291 1.15428
0.00082 2.39982 1.34858
-0.00559 2.40643 1.54048
0.00276 2.39970 1.73409
-0.00545 2.40366 1.92066
0.00143 2.40288 2.11827
0.00351 2.40175 2.30237
0.00431 2.40129 2.50117
-0.00553 2.29988 0.00196
0.00176 2.30072 0.19681
-0.00420 2.29481 0.37695
0.00101 2.30212 0.57772
0.00057 2.29183 0.77114
-0.00124 2.30696 0.95656
-0.00441 2.30141 1.14642
-0.00317 2.30562 1.34792
-0.00162 2.30714 1.54011
0.00109 2.29785 1.73598
-0.00668 2.30503 1.92691
0.00017 2.30810 2.11649
0.00140 2.29660 2.30583
0.00247 2.30243 2.50131
0.00119 2.20513 -0.00092
0.00152 2.19386 0.19572
-0.00108 2.20646 0.38708
0.00187 2.19280 0.57093
-0.00044 2.19738 0.76710
-0.00147 2.19658 0.96502
0.00167 2.20632 1.14981
0.00847 2.19779 1.34693
0.00781 2.20435 1.53229
0.00343 2.20615 1.73254
0.00265 2.19615 1.92295
-0.00197 2.19465 2.11216
-0.00178 2.19664 2.30462
-0.00278 2.20554 2.50582
0.00966 2.09693 0.00142
0.00048 2.09776 0.18913
0.00366 2.10387 0.39281
-0.00449 2.10569 0.57485
-0.00416 2.10357 0.76900
0.00652 2.09277 0.96616
-0.00385 2.09707 1.14560
0.00241 2.09840 1.35116
0.00111 2.09610 1.53431
-0.00449 2.09470 1.73277
-0.00441 2.09756 1.92309
-0.00110 2.10028 2.11819
0.00195 2.09558 2.30764
-0.00595 2.09880 2.50173
-0.00141 2.00175 0.00559
0.00561 1.99121 0.18957
-0.00051 2.00425 0.38306
0.00693 2.00245 0.57338
-0.00350 1.99690 0.76262
-0.00111 2.00559 0.96322
0.00484 1.99756 1.15054
-0.00167 1.99638 1.35401
-0.00113 2.00407 1.53975
-0.00225 2.00407 1.73306
0.00152 1.99994 1.92418
0.00226 2.00693 2.11428
-0.00180 1.99542 2.30722
0.00143 2.00721 2.49562
-0.00832 1.89784 -0.00107
-0.00290 1.90911 0.18084
-0.00449 1.89784 0.38641
0.00314 1.90020 0.57927
-0.00130 1.89327 0.76925
-0.00441 1.89085 0.95809
-0.00167 1.89989 1.15386
0.00044 1.90628 1.34725
0.00104 1.90579 1.54310
-0.00333 1.90157 1.72760
0.00018 1.90611 1.92359
-0.00141 1.89470 2.11695
-0.00036 1.90332 2.31065
0.00310 1.90471 2.49943
0.00549 1.79335 0.00462
-0.00430 1.79294 0.19142
-0.00115 1.80365 0.38152
-0.00482 1.80052 0.57885
-0.00334 1.80050 0.76445
0.00051 1.79988 0.95156
0.00190 1.79924 1.14991
0.00752 1.80187 1.34437
-0.00246 1.80104 1.54189
0.00051 1.80225 1.72696
-0.00086 1.80413 1.92354
0.00242 1.79886 2.12060
-0.00261 1.79678 2.30242
0.00119 1.79946 2.50337
-0.00189 1.69369 0.00017
-0.00358 1.69738 0.19653
0.00181 1.69815 0.38446
-0.00478 1.69452 0.57912
0.00460 1.70159 0.76502
-0.00051 1.69961 0.96129
-0.00533 1.70185 1.15305
-0.00450 1.69259 1.34127
-0.00314 1.70090 1.54155
-0.00625 1.70266 1.73394
-0.00304 1.69692 1.93052
-0.00097 1.70238 2.11397
-0.00119 1.69406 2.30679
-0.00473 1.69615 2.50194
-0.00222 1.60863 -0.00106
0.00323 1.60147 0.18645
-0.00900 1.59327 0.38381
0.00429 1.59740 0.57753
0.00066 1.61058 0.76702
-0.00210 1.59976 0.96205
-0.00924 1.59991 1.15142
-0.00062 1.59606 1.34937
0.00423 1.60219 1.54195
-0.00356 1.59651 1.72830
0.00280 1.60377 1.92669
0.00067 1.60113 2.11868
-0.00278 1.59856 2.30927
0.00627 1.60251 2.49987
-0.00199 1.50057 -0.01094
0.00286 1.50195 0.18890
0.00135 1.50025 0.38049
0.00548 1.50070 0.57276
0.00868 1.49982 0.76654
0.00299 1.50357 0.96280
-0.01163 1.49978 1.15355
-0.00043 1.50249 1.34715
-0.00097 1.49415 1.54117
-0.00100 1.50064 1.73541
0.00340 1.50076 1.91949
-0.00339 1.49480 2.11317
0.00711 1.49962 2.30757
0.00027 1.50231 2.50476
-0.00084 1.40322 0.01242
-0.01006 1.39878 0.19202
0.00014 1.40079 0.38199
0.01258 1.39879 0.57782
-0.00089 1.40213 0.77135
0.00124 1.40566 0.96098
0.00404 1.39411 1.15792
0.00216 1.40231 1.34672
-0.00131 1.39062 1.53620
-0.00101 1.39693 1.73243
-0.00148 1.40215 1.92071
0.00184 1.40034 2.11475
-0.00448 1.40520 2.30620
-0.00492 1.40535 2.49662
-0.00356 1.30065 -0.00573
-0.00266 1.29280 0.18471
-0.00005 1.29916 0.38963
0.00722 1.30109 0.57857
-0.00475 1.29818 0.76962
0.00393 1.30244 0.96086
-0.00075 1.29672 1.14820
-0.00363 1.29974 1.34704
-0.00088 1.30116 1.54569
0.00086 1.29877 1.73032
-0.00806 1.30223 1.92399
0.00098 1.29644 2.11215
-0.00564 1.30017 2.31906
0.00178 1.30816 2.49678
0.00060 1.20410 0.00483
-0.00705 1.19807 0.19623
0.00658 1.19724 0.38140
-0.00574 1.19935 0.57394
0.00681 1.20564 0.76999
0.00537 1.20300 0.96175
0.00292 1.20296 1.15395
-0.00251 1.19911 1.34701
0.00538 1.19749 1.53783
0.00479 1.19800 1.73455
-0.00411 1.19861 1.92211
0.00576 1.20036 2.11038
-0.00501 1.20787 2.30985
-0.00181 1.20336 2.49729
0.00153 1.09747 0.00052
-0.00475 1.10154 0.19651
-0.00072 1.10236 0.38157
-0.00103 1.10079 0.58026
0.00027 1.09801 0.76464
-0.00055 1.09536 0.96475
-0.00714 1.10092 1.15285
-0.00116 1.09989 1.34869
0.00124 1.09463 1.54267
-0.00410 1.09906 1.73308
-0.00048 1.09634 1.92012
-0.00193 1.10583 2.11003
0.00420 1.09467 2.30558
0.00195 1.09686 2.49962
-0.00120 0.99617 0.00657
-0.00070 1.00615 0.18382
0.00433 0.99992 0.38409
0.00446 1.00364 0.58190
0.00331 0.99900 0.76744
-0.00207 0.99534 0.96558
0.00320 1.00131 1.15222
-0.00317 0.99837 1.34526
0.00206 1.00257 1.53218
0.00034 1.00062 1.73199
-0.00422 1.00096 1.92177
0.00203 1.00144 2.11815
0.00594 1.00192 2.30999
0.00375 0.99669 2.49799
-0.00012 0.89871 0.00644
0.00020 0.89511 0.18569
0.01064 0.89995 0.38862
0.00267 0.90709 0.57670
-0.00951 0.89499 0.76839
-0.00233 0.90248 0.95962
0.00754 0.89749 1.15548
-0.00603 0.90401 1.33981
0.00043 0.89933 1.53332
-0.00350 0.90166 1.72808
0.00228 0.89809 1.92419
-0.00247 0.90318 2.11364
-0.00487 0.90113 2.31171
-0.00270 0.89957 2.49856
0.00387 0.79732 -0.00330
-0.00282 0.80322 0.19157
0.00350 0.79914 0.38466
-0.00362 0.79952 0.57072
0.00049 0.79596 0.76936
0.00055 0.80224 0.96115
-0.00183 0.80887 1.15913
0.00153 0.79591 1.34811
-0.00361 0.80372 1.53729
-0.00051 0.80691 1.73594
0.00191 0.79906 1.91830
0.00385 0.79981 2.11521
-0.00817 0.79561 2.29971
0.00027 0.79953 2.49268
-0.00024 0.69642 -0.00976
0.00207 0.70763 0.18971
0.00249 0.69987 0.38298
0.00853 0.69528 0.57957
-0.00519 0.69559 0.77209
-0.00398 0.69993 0.95937
0.00087 0.69710 1.15577
-0.00371 0.69986 1.34473
-0.00453 0.69451 1.53596
-0.00951 0.70924 1.73442
0.00171 0.70684 1.91421
0.00280 0.69369 2.11671
-0.00025 0.69349 2.31035
0.00452 0.70109 2.50071
0.00066 0.59466 -0.00022
0.00283 0.60121 0.19855
0.00078 0.59638 0.38627
0.00261 0.59812 0.57933
0.00328 0.59766 0.77246
0.00406 0.59525 0.96143
0.00310 0.60040 1.15698
-0.00180 0.59501 1.34666
-0.00789 0.60110 1.54444
0.00155 0.59834 1.72831
-0.00014 0.60827 1.92623
-0.00045 0.59857 2.11620
0.00741 0.59596 2.30493
-0.00213 0.59975 2.50132
0.00778 0.50278 -0.00658
-0.00554 0.49902 0.19252
0.00153 0.49734 0.38360
-0.00462 0.49592 0.57663
0.00396 0.49483 0.77353
-0.00104 0.49652 0.96442
-0.00117 0.50073 1.15308
-0.00071 0.49924 1.34827
-0.00331 0.50510 1.54206
0.00286 0.50160 1.73165
0.00499 0.50345 1.92413
0.00159 0.50634 2.12193
0.00584 0.49935 2.31360
-0.00095 0.50359 2.50245
-0.00013 0.40274 0.00322
-0.00096 0.40060 0.18856
0.01019 0.39694 0.38652
0.00052 0.40416 0.57495
0.00402 0.40554 0.77061
-0.00130 0.40250 0.95694
0.00066 0.40527 1.15470
-0.00895 0.39713 1.34599
-0.00164 0.39239 1.53353
0.00317 0.40019 1.72023
0.00394 0.39907 1.92262
-0.00520 0.40187 2.11249
-0.00131 0.39538 2.29898
0.00525 0.39562 2.49685
-0.00027 0.30282 -0.00233
0.00196 0.30729 0.19391
-0.00263 0.30460 0.38112
-0.00172 0.30220 0.57863
-0.00623 0.30818 0.77169
0.00528 0.30003 0.96750
-0.00231 0.29978 1.15369
0.00303 0.29452 1.34964
-0.00139 0.29769 1.53962
-0.00784 0.30239 1.72741
0.00164 0.30207 1.93563
-0.01066 0.29637 2.12319
-0.00391 0.29921 2.30664
-0.00253 0.30785 2.50000
-0.00175 0.20550 -0.00192
-0.00048 0.19923 0.19964
-0.00177 0.19469 0.38724
-0.00404 0.19724 0.57811
-0.00138 0.19499 0.76913
-0.00455 0.20052 0.95684
-0.00148 0.20715 1.15039
0.00008 0.20422 1.35057
0.00261 0.19983 1.54314
-0.00162 0.20824 1.73161
-0.00626 0.20986 1.92124
0.00177 0.20369 2.11953
-0.00296 0.19788 2.30804
0.01193 0.20188 2.49984
0.00098 0.10383 0.00715
-0.00048 0.09754 0.18993
-0.00233 0.10356 0.38661
0.00285 0.10701 0.57603
0.00440 0.10186 0.76742
-0.00194 0.09874 0.96192
0.00380 0.10412 1.15512
0.00423 0.10107 1.34756
-0.00049 0.10801 1.54500
-0.00197 0.10348 1.73173
-0.00091 0.10296 1.92380
0.00064 0.09909 2.11501
-0.00541 0.09735 2.30737
0.00352 0.10642 2.50144
-0.00474 -0.00292 0.00171
-0.00198 -0.00440 0.19108
-0.00006 0.00164 0.38091
-0.00057 0.00254 0.57968
0.00454 0.00211 0.76968
0.00857 -0.00019 0.96812
-0.00208 0.00464 1.14804
0.00301 -0.00260 1.34489
-0.00104 -0.00243 1.52742
0.00784 -0.00154 1.72524
0.00484 0.00666 1.92281
-0.00084 -0.00491 2.11697
-0.00403 0.00768 2.30705
0.00213 -0.00350 2.49764
0.20154 0.19569 0.00339
0.19678 0.49012 -0.00367
0.20363 0.77199 -0.00028
0.19954 1.05904 -0.00318
0.20050 1.35118 -0.00114
0.18912 1.64469 -0.00382
0.19528 1.93013 -0.00162
0.19776 2.22346 0.00355
0.20177 2.51014 0.00487
0.19619 2.79828 -0.01196
0.52718 0.19793 0.00453
0.52535 0.48644 0.00918
0.52894 0.77462 -0.00630
0.52190 1.07115 0.00005
0.52934 1.35687 -0.00268
0.52491 1.64756 -0.00113
0.52583 1.93219 0.00026
0.53261 2.22369 0.00362
0.52305 2.50719 0.00499
0.52909 2.80121 -0.00080
0.86082 0.20147 -0.00156
0.85296 0.48777 0.00355
0.85711 0.78000 0.00763
0.85641 1.06703 0.00281
0.85698 1.34893 -0.00407
0.85764 1.64794 -0.00097
0.85280 1.92811 0.00061
0.85587 2.22491 -0.00156
0.85228 2.51508 -0.00045
0.85500 2.79350 -0.00190
1.18708 0.20535 -0.00100
1.18371 0.48917 0.00832
1.17161 0.77748 -0.01309
1.18481 1.07296 -0.00043
1.18243 1.35761 0.00480
1.17329 1.64306 0.00126
1.18028 1.93069 -0.00360
1.18066 2.22317 0.00465
1.18222 2.50748 0.00052
1.18607 2.79783 -0.00034
1.51219 0.19754 -0.00060
1.50919 0.49093 -0.00780
1.51007 0.77611 -0.00035
1.51309 1.06886 0.00898
1.51114 1.34774 -0.00243
1.51061 1.64484 0.00504
1.50170 1.93504 0.00052
1.50995 2.22146 -0.00104
1.50335 2.51833 -0.00388
1.51308 2.79915 -0.00066
1.84385 0.19922 0.00459
1.83590 0.49124 -0.00157
1.83229 0.77491 0.00321
1.83820 1.06805 -0.00079
1.83727 1.35913 0.00076
1.83720 1.63885 -0.00247
1.83363 1.92982 0.00100
1.84361 2.22762 0.00217
1.83245 2.51353 0.00655
1.83203 2.79682 -0.01048
2.15747 0.20778 0.00781
2.16686 0.49054 -0.00219
2.16704 0.77705 0.00798
2.16760 1.07087 0.00072
2.16117 1.36041 -0.00156
2.15838 1.64944 0.00335
2.16368 1.93531 0.01034
2.15427 2.22194 0.00180
2.16255 2.50783 0.00613
2.17290 2.80403 0.00530
2.48817 0.19899 0.00152
2.49434 0.48788 0.00548
2.49246 0.78145 0.00645
2.49346 1.06318 -0.00487
2.48852 1.35523 -0.00018
2.48922 1.64563 0.00043
2.49318 1.93159 0.00456
2.48178 2.22360 0.00035
2.49331 2.51826 0.00370
2.49179 2.79835 0.00270
2.81732 0.19829 0.00469
2.81931 0.49056 0.00011
2.81486 0.76964 0.00202
2.82092 1.06758 -0.00429
2.81631 1.35532 -0.00576
2.81760 1.64525 -0.00005
2.81346 1.93202 -0.00279
2.81314 2.21682 -0.00032
2.81518 2.51924 0.00047
2.81932 2.79982 -0.00262
3.14867 0.20210 0.00242
3.14713 0.48172 0.00229
3.14456 0.77788 0.00391
3.14432 1.06162 0.00186
3.15373 1.35045 0.00134
3.14400 1.64939 0.00002
3.14026 1.92521 0.00579
3.14537 2.21923 -0.00073
3.14545 2.50789 -0.00089
3.14835 2.79498 0.00432
3.47020 0.20099 0.00593
3.46865 0.48876 0.00177
3.47643 0.77453 0.00579
3.46497 1.06760 -0.00430
3.47207 1.35872 -0.00105
3.47680 1.64523 0.00258
3.47481 1.92484 0.00651
3.46662 2.22311 0.00131
3.46608 2.51011 -0.00229
3.46924 2.80123 0.00092
3.80033 0.20084 -0.00543
3.80166 0.48415 -0.00169
3.79779 0.77222 0.00230
3.80633 1.06537 0.00278
3.79688 1.35777 0.00661
3.80303 1.64019 0.00041
3.79856 1.93224 0.00762
3.79777 2.21913 0.00272
3.79658 2.50675 -0.00828
3.79474 2.79742 -0.00270
